<svg xmlns="http://www.w3.org/2000/svg" viewBox="0 0 568.46 55.7"><path d="M28.58 2.34a3 3 0 0 1 1.35 2.58 9.11 9.11 0 0 1-.37 2.21 34.27 34.27 0 0 0-.37 4.8c0 1.35-1.6 1.35-1.72-.12a8.27 8.27 0 0 0-2.21-4.3 10.48 10.48 0 0 0-8.36-3.7c-4.18 0-7.25 2.83-7.25 7.75 0 6.76 5 9.35 10.21 11.19 7.25 2.58 13.52 5.25 13.52 14.14 0 6.89-4.3 11.56-7.62 14a20.54 20.54 0 0 1-12.17 4.18 18.89 18.89 0 0 1-9.47-2.21C1.9 51.4.55 49.92.06 48.2a4.38 4.38 0 0 1 1-3.08c.61-1 1.6-3.69 2.09-4.79.37-.86 1.48-.74 1.6.37a7.77 7.77 0 0 0 .86 3.69c1.6 3.32 6.89 6.27 11.68 6.27 5.78 0 9.1-3.2 9.1-9.47 0-6.52-4.8-9.59-11.31-11.93C6.7 26.31 2.76 22.38 2.76 16A14.24 14.24 0 0 1 7.43 5.41 18.65 18.65 0 0 1 20.34 0a13.41 13.41 0 0 1 8.24 2.34zM64.7 22.13c0-7.38 0-12-.49-14.63-.74-3.2-3.44-4.18-5.9-4.79-1-.25-.86-1.6.61-1.6 4.92 0 7.13.37 10.82.37 2.71 0 4.92-.37 8.36-.37 1.48 0 1.48 1.35.25 1.6-2.09.49-4.92 1.48-5.41 4.42s-.61 7.63-.61 15v10.95c0 7.38 0 11.8.74 14.88.61 2.83 3.2 3.81 6.15 4.43 1.11.25 1.11 1.6-.37 1.6-4.06 0-7-.37-10.45-.37-3 0-6 .37-9.84.37-1.35 0-1.48-1.35-.25-1.6 2.46-.37 5.29-1.6 5.78-3.81.61-3.69.61-8.12.61-15.49zM110 20.9c0-6.27 0-9.47-.37-12.17-.49-3.57-3.57-5.16-6.52-6-1.11-.25-1.11-1.6.25-1.6 3.81 0 7.13.37 10.45.37 3.07 0 5.78-.37 9.47-.37 1.35 0 1.35 1.23.12 1.6-3.93 1.35-4.55 2.71-4.92 4.18-.37 1.23-.86 6-.86 15v13c0 7.62.24 12.3 1.23 13.65.86 1.11 3 1.35 6 1.35a38.91 38.91 0 0 0 8.11-.49 8.46 8.46 0 0 0 4.55-2.42 16.3 16.3 0 0 0 2.09-4.18c.37-1.11 1.6-1 1.6.37a47.3 47.3 0 0 1-1.6 9.1c-.49 1.6-1.11 1.72-4.43 1.72-6.15 0-16.72-.37-23-.37-2.34 0-5.66.37-9.1.37-1.48 0-1.35-1.23-.37-1.6 2.83-1 5.9-2 6.52-5.16.49-2.71.74-6.52.74-14zM182.91 41.44c-2.21 4.92-3.2 7.87-4.06 9.35-1.84 3.57-3.44 4.92-3.93 4.92s-1-.49-1.35-1.47c-2.21-5.78-3-8.12-5.41-15.13-2.46-6.76-6.39-17.09-9.59-24.72-3.2-7.87-4.06-9.1-7.13-10.7l-2.09-1c-1.11-.49-1.35-1.6.37-1.6 3.69 0 6 .37 9 .37 3.81 0 7.38-.37 11.07-.37 1.47 0 1.47 1.23.37 1.6L167 3.92c-3.32 1.48-2.46 3.57-.74 8.73 3.57 10.45 7.5 20.17 11.19 28.41.74 1.72 1.11 1.84 2 0 3.81-7.87 10.33-24.1 12-29.64s.74-6.89-3.08-8.24L187 2.71c-1-.37-.86-1.6.37-1.6 3.44 0 6.52.37 9.47.37s6.15-.37 9-.37c1.48 0 1.35 1.11.24 1.6l-2.7 1.23c-3.57 1.48-5.38 4.42-10.08 14.39-2.89 6.02-5.84 12.53-10.39 23.11zM226.91 20.9c0-7.38 0-9.72-.49-12.79s-3.2-4.55-6.27-5.29c-1.35-.37-1.23-1.72.12-1.72 4.06 0 6.89.37 10.7.37h12.67c6.52 0 10.7-.12 11.8-.49a3.27 3.27 0 0 1 1.23-.49c.25 0 .61.25.49.86a43.38 43.38 0 0 0-.61 10.58c.12 1.6-1.48 1.84-1.72.37-.49-2.71-2.34-5.41-4.67-6a34.64 34.64 0 0 0-9.1-.86h-3.2c-2.58 0-2.83.25-3.08 2.21-.12 1.11-.24 4.43-.24 8.24v6.61c0 1.48 0 1.35 2.58 1.6h2.58c6.89 0 9.71-.37 10.82-.74a5.53 5.53 0 0 0 2.83-2.21c.37-.62 1.23-.37 1.11.49a89.29 89.29 0 0 0-.61 12.3.74.74 0 0 1-1.47.12 10.81 10.81 0 0 0-1.23-3.2c-1.23-2.09-4.3-2.83-10.7-2.83h-3.69c-1.84 0-2.21.12-2.21 1.6v5.78c0 8.61.24 11.68 1.11 12.91s3.57 1.6 8.48 1.6a45.29 45.29 0 0 0 7.75-.49 7.76 7.76 0 0 0 4.55-2.34 15.59 15.59 0 0 0 2.21-4.55c.37-1 1.6-.86 1.6.12a71.62 71.62 0 0 1-1.25 9.6c-.37 1.6-1.11 1.72-4.43 1.72-3.81 0-19.43-.37-25.45-.37-3.57 0-6.76.37-11.31.37-1.35 0-1.35-1.48-.37-1.6 4.18-.86 8-1.6 8.85-5 .25-1.23.61-3.81.61-13.28zM292.06 17.71c0-4.42-.37-7.38-.49-9.47a5.31 5.31 0 0 0-1-2.71c-.86-.86-3.57-1.23-5.9-1.48-1.6-.12-1.48-1.35 0-1.6A162.5 162.5 0 0 1 304.24.86c18.44-.49 19.3 10.33 19.3 13.9 0 5.16-3 9.1-5.16 10.45l-2.46 1.6c-.61.37-.86.74-.37 1.85 4.18 8.73 10.2 16.48 14.51 19.92a21.09 21.09 0 0 0 7.75 4.3c.49.12.61.86.24 1a15.49 15.49 0 0 1-5.16.74c-4.55 0-9.22-1.48-12-3.93-4.55-4.3-7.75-10.08-11.43-17.22-1.11-2.34-2-2.58-3.32-2.46-1.72.12-3.69.37-5.66.37-.61 0-.74.25-.74 2.58v5.14a37.56 37.56 0 0 0 .37 6.76c.74 3.93 1.6 5 7 6.52 1.35.37 1.35 1.6-.12 1.6-3.32 0-6.89-.37-10.45-.37s-7.54.39-11 .39c-1.35 0-1.6-1.23-.24-1.6 4.67-1.23 5.78-2.21 6.27-5.78.12-1.72.49-4.79.49-9.59zm7.62 7.75c0 1.35.12 1.72 1.11 1.85 1.6.12 3.07.12 5.66.12 4.06 0 9.35-2.21 9.35-9.22 0-7.38-4.92-13.89-13.53-13.89-1.72 0-2 .37-2.21 1.23s-.37 2.34-.37 8zM362.43 20.9c0-6.27 0-9.47-.37-12.17-.49-3.57-3.57-5.16-6.52-6-1.11-.25-1.11-1.6.25-1.6 3.81 0 7.13.37 10.45.37 3.08 0 5.78-.37 9.47-.37 1.35 0 1.35 1.23.12 1.6-3.93 1.35-4.55 2.71-4.92 4.18-.37 1.23-.86 6-.86 15v13c0 7.62.25 12.3 1.23 13.65.86 1.11 2.95 1.35 6 1.35a39 39 0 0 0 8.12-.49A8.46 8.46 0 0 0 390 47a16.29 16.29 0 0 0 2.09-4.18c.37-1.11 1.6-1 1.6.37a47.18 47.18 0 0 1-1.6 9.1c-.49 1.6-1.11 1.72-4.42 1.72-6.15 0-16.72-.37-23-.37-2.33 0-5.65.37-9.1.37-1.48 0-1.35-1.23-.37-1.6 2.83-1 5.9-2 6.52-5.16.49-2.71.74-6.52.74-14zM421.89 20.9c0-7.38 0-9.72-.49-12.79s-3.2-4.55-6.27-5.29c-1.35-.37-1.23-1.72.13-1.72 4 0 6.88.37 10.7.37h12.67c6.52 0 10.7-.12 11.8-.49a3.27 3.27 0 0 1 1.23-.49c.25 0 .61.25.49.86a43.38 43.38 0 0 0-.62 10.58c.13 1.6-1.47 1.84-1.72.37-.49-2.71-2.34-5.41-4.67-6a34.64 34.64 0 0 0-9.1-.86h-3.2c-2.58 0-2.83.25-3.08 2.21-.12 1.11-.25 4.43-.25 8.24v6.61c0 1.48 0 1.35 2.59 1.6h2.58c6.89 0 9.72-.37 10.82-.74a5.54 5.54 0 0 0 2.83-2.21c.37-.62 1.23-.37 1.11.49a89.45 89.45 0 0 0-.62 12.3.74.74 0 0 1-1.47.12 10.84 10.84 0 0 0-1.23-3.2c-1.23-2.09-4.3-2.83-10.7-2.83h-3.69c-1.84 0-2.21.12-2.21 1.6v5.78c0 8.61.25 11.68 1.11 12.91s3.57 1.6 8.49 1.6a45.3 45.3 0 0 0 7.75-.49 7.77 7.77 0 0 0 4.55-2.34 15.67 15.67 0 0 0 2.21-4.55c.37-1 1.6-.86 1.6.12a71.82 71.82 0 0 1-1.24 9.6c-.37 1.6-1.11 1.72-4.43 1.72-3.81 0-19.43-.37-25.45-.37-3.57 0-6.76.37-11.31.37-1.35 0-1.35-1.48-.37-1.6 4.18-.86 8-1.6 8.86-5 .25-1.23.61-3.81.61-13.28zM510.23 2.34a3 3 0 0 1 1.35 2.58 9 9 0 0 1-.37 2.21 34.27 34.27 0 0 0-.37 4.8c0 1.35-1.6 1.35-1.72-.12a8.24 8.24 0 0 0-2.21-4.3 10.48 10.48 0 0 0-8.36-3.69c-4.18 0-7.25 2.83-7.25 7.75 0 6.76 5 9.35 10.21 11.19C508.76 25.33 515 28 515 36.89c0 6.89-4.3 11.56-7.62 14a20.53 20.53 0 0 1-12.17 4.18 18.9 18.9 0 0 1-9.47-2.21c-2.21-1.48-3.57-3-4.06-4.67a4.37 4.37 0 0 1 1-3.08c.61-1 1.6-3.69 2.09-4.79.37-.86 1.48-.74 1.6.37a7.77 7.77 0 0 0 .86 3.69c1.6 3.32 6.89 6.27 11.68 6.27 5.78 0 9.1-3.2 9.1-9.47 0-6.52-4.79-9.59-11.31-11.93-8.36-3-12.3-6.89-12.3-13.28a14.24 14.24 0 0 1 4.67-10.58A18.64 18.64 0 0 1 502 0a13.4 13.4 0 0 1 8.23 2.34zM563.66 2.34A3 3 0 0 1 565 4.92a9.2 9.2 0 0 1-.37 2.21 34.27 34.27 0 0 0-.37 4.8c0 1.35-1.6 1.35-1.72-.12a8.3 8.3 0 0 0-2.22-4.3 10.47 10.47 0 0 0-8.32-3.7c-4.18 0-7.26 2.83-7.26 7.75 0 6.76 5 9.35 10.21 11.19 7.25 2.58 13.52 5.29 13.52 14.14 0 6.89-4.3 11.56-7.62 14a20.54 20.54 0 0 1-12.17 4.18 18.87 18.87 0 0 1-9.47-2.21c-2.22-1.48-3.57-3-4.06-4.67a4.38 4.38 0 0 1 1-3.08c.62-1 1.6-3.69 2.09-4.79.37-.86 1.48-.74 1.6.37a7.77 7.77 0 0 0 .86 3.69c1.6 3.32 6.89 6.27 11.68 6.27 5.78 0 9.1-3.2 9.1-9.47 0-6.52-4.8-9.59-11.31-11.93-8.36-3-12.29-6.89-12.29-13.28a14.23 14.23 0 0 1 4.67-10.58A18.65 18.65 0 0 1 555.42 0a13.42 13.42 0 0 1 8.24 2.34z"/></svg>